<svg width="34" height="35" viewBox="0 0 34 35" fill="none" xmlns="http://www.w3.org/2000/svg">
<g clip-path="url(#clip0_4_62)">
<path d="M17.0889 31.25C18.6358 31.25 19.9014 29.9844 19.9014 28.4375H14.2764C14.2764 29.1834 14.5727 29.8988 15.1002 30.4262C15.6276 30.9537 16.343 31.25 17.0889 31.25ZM25.5264 22.8125V15.7812C25.5264 11.4641 23.2201 7.84999 19.1983 6.89374V5.93749C19.1983 4.7703 18.2561 3.82812 17.0889 3.82812C15.9217 3.82812 14.9795 4.7703 14.9795 5.93749V6.89374C10.9436 7.84999 8.65139 11.45 8.65139 15.7812V22.8125L6.83733 24.6266C5.95139 25.5125 6.57014 27.0312 7.82171 27.0312H26.342C27.5936 27.0312 28.2264 25.5125 27.3405 24.6266L25.5264 22.8125Z" fill="#FAFAFA"/>
</g>
<defs>
<clipPath id="clip0_4_62">
<rect width="33.75" height="33.75" fill="white" transform="translate(0.213867 0.312492)"/>
</clipPath>
</defs>
</svg>
