<svg width="35" height="35" viewBox="0 0 35 35" fill="none" xmlns="http://www.w3.org/2000/svg">
<g clip-path="url(#clip0_4_25)">
<path d="M14.6875 27.0312V20H20.3125V27.0312C20.3125 27.8047 20.9453 28.4375 21.7188 28.4375H25.9375C26.711 28.4375 27.3438 27.8047 27.3438 27.0312V17.1875H29.7344C30.3813 17.1875 30.6907 16.3859 30.1985 15.9641L18.4422 5.37499C17.9078 4.89687 17.0922 4.89687 16.5578 5.37499L4.80159 15.9641C4.32347 16.3859 4.61878 17.1875 5.26566 17.1875H7.65628V27.0312C7.65628 27.8047 8.28909 28.4375 9.06253 28.4375H13.2813C14.0547 28.4375 14.6875 27.8047 14.6875 27.0312Z" fill="#2A96FA"/>
</g>
<defs>
<clipPath id="clip0_4_25">
<rect width="33.75" height="33.75" fill="white" transform="translate(0.625 0.312494)"/>
</clipPath>
</defs>
</svg>
