<svg width="24" height="25" viewBox="0 0 24 25" fill="none" xmlns="http://www.w3.org/2000/svg">
<g clip-path="url(#clip0_4_44)">
<g clip-path="url(#clip1_4_44)">
<path d="M10.0729 17.457C14.0362 17.457 17.249 14.2442 17.249 10.2809C17.249 6.31766 14.0362 3.10481 10.0729 3.10481C6.10966 3.10481 2.89681 6.31766 2.89681 10.2809C2.89681 14.2442 6.10966 17.457 10.0729 17.457ZM18.1193 16.2976L23.588 21.7663C24.1066 22.2849 24.1066 23.1259 23.588 23.6445L23.4365 23.796C22.9179 24.3146 22.0769 24.3146 21.5583 23.796L16.0896 18.3273C14.4124 19.5834 12.3296 20.3275 10.0729 20.3275C4.52436 20.3275 0.0263672 15.8295 0.0263672 10.2809C0.0263672 4.73236 4.52436 0.234372 10.0729 0.234372C15.6215 0.234372 20.1194 4.73236 20.1194 10.2809C20.1194 12.5376 19.3754 14.6204 18.1193 16.2976Z" fill="white"/>
</g>
</g>
<defs>
<clipPath id="clip0_4_44">
<rect width="23.9062" height="23.9062" fill="white" transform="translate(0.0263672 0.234367)"/>
</clipPath>
<clipPath id="clip1_4_44">
<rect width="23.9062" height="23.9062" fill="white" transform="translate(0.0263672 0.234367)"/>
</clipPath>
</defs>
</svg>
